<mxfile host="Electron" modified="2024-02-02T04:06:08.041Z" agent="Mozilla/5.0 (Windows NT 10.0; Win64; x64) AppleWebKit/537.36 (KHTML, like Gecko) draw.io/23.0.2 Chrome/120.0.6099.109 Electron/28.1.0 Safari/537.36" etag="Xd3lXxyC3Aqj5lc5VXxa" version="23.0.2" type="device">
  <diagram name="Página-1" id="eMetuVO5NtMNBn9otDV2">
    <mxGraphModel dx="2247" dy="1999" grid="1" gridSize="10" guides="1" tooltips="1" connect="1" arrows="1" fold="1" page="1" pageScale="1" pageWidth="827" pageHeight="1169" background="#C9C0B6" math="0" shadow="0">
      <root>
        <mxCell id="0" />
        <mxCell id="1" parent="0" />
        <mxCell id="zulou_sgvfWS-L52G-o0-3" value="2. Hacer una función llamada “par” que reciba un número entero y devuelva 1 si es par o cero si no lo es.&#xa;Hacer un programa para ingresar 20 números y mostrar por pantalla &#xa;cuántos son pares." style="text;whiteSpace=wrap;html=1;fontSize=16;fontFamily=Comic Sans MS;fontStyle=1;fontColor=#000000;" parent="1" vertex="1">
          <mxGeometry x="-146" y="-40" width="560" height="140" as="geometry" />
        </mxCell>
        <mxCell id="vWWat6QSBSI1lbSyYQIO-2" value="" style="line;strokeWidth=2;direction=south;html=1;sketch=1;hachureGap=4;jiggle=2;curveFitting=1;fontFamily=Architects Daughter;fontSource=https%3A%2F%2Ffonts.googleapis.com%2Fcss%3Ffamily%3DArchitects%2BDaughter;fontSize=20;strokeColor=#0000FF;dashed=1;" parent="1" vertex="1">
          <mxGeometry x="690" y="40" width="10" height="1240" as="geometry" />
        </mxCell>
        <mxCell id="vWWat6QSBSI1lbSyYQIO-40" value="" style="group;aspect=fixed;strokeColor=#100f0f;" parent="1" vertex="1" connectable="0">
          <mxGeometry x="760" y="210" width="500" height="557.72" as="geometry" />
        </mxCell>
        <mxCell id="vWWat6QSBSI1lbSyYQIO-26" value="" style="group;aspect=fixed;" parent="vWWat6QSBSI1lbSyYQIO-40" vertex="1" connectable="0">
          <mxGeometry x="100" width="269.98125000000005" height="65.45000000000005" as="geometry" />
        </mxCell>
        <mxCell id="vWWat6QSBSI1lbSyYQIO-21" value="" style="shape=hexagon;perimeter=hexagonPerimeter2;whiteSpace=wrap;html=1;fixedSize=1;rounded=0;labelBackgroundColor=none;strokeColor=#4f514d;strokeWidth=2;align=center;verticalAlign=middle;fontFamily=Helvetica;fontSize=12;fillColor=#d5e8d4;aspect=fixed;" parent="vWWat6QSBSI1lbSyYQIO-26" vertex="1">
          <mxGeometry width="269.98125" height="65.45" as="geometry" />
        </mxCell>
        <mxCell id="vWWat6QSBSI1lbSyYQIO-22" value="" style="line;strokeWidth=2;html=1;rounded=0;labelBackgroundColor=none;align=center;verticalAlign=middle;fontFamily=Helvetica;fontSize=12;strokeColor=#252323;aspect=fixed;" parent="vWWat6QSBSI1lbSyYQIO-26" vertex="1">
          <mxGeometry y="24.54374999999999" width="269.98125" height="16.3625" as="geometry" />
        </mxCell>
        <mxCell id="vWWat6QSBSI1lbSyYQIO-23" value="" style="line;strokeWidth=2;direction=south;html=1;rounded=0;labelBackgroundColor=none;strokeColor=#000000;align=center;verticalAlign=middle;fontFamily=Helvetica;fontSize=12;fontColor=default;fillColor=#d5e8d4;aspect=fixed;" parent="vWWat6QSBSI1lbSyYQIO-26" vertex="1">
          <mxGeometry x="171.81818181818176" y="32.72500000000002" width="8.18125" height="32.725" as="geometry" />
        </mxCell>
        <mxCell id="vWWat6QSBSI1lbSyYQIO-24" value="int par" style="text;strokeColor=none;align=center;fillColor=none;html=1;verticalAlign=middle;whiteSpace=wrap;rounded=0;fontSize=20;fontFamily=Architects Daughter;fontStyle=1;fontColor=#000000;aspect=fixed;" parent="vWWat6QSBSI1lbSyYQIO-26" vertex="1">
          <mxGeometry x="60" width="130" height="30" as="geometry" />
        </mxCell>
        <mxCell id="vWWat6QSBSI1lbSyYQIO-25" value="int n1" style="text;strokeColor=none;align=center;fillColor=none;html=1;verticalAlign=middle;whiteSpace=wrap;rounded=0;fontSize=20;fontFamily=Architects Daughter;fontStyle=1;fontColor=#000000;aspect=fixed;" parent="vWWat6QSBSI1lbSyYQIO-26" vertex="1">
          <mxGeometry x="30" y="32.72000000000003" width="140" height="30" as="geometry" />
        </mxCell>
        <mxCell id="vWWat6QSBSI1lbSyYQIO-27" value="" style="rounded=0;whiteSpace=wrap;html=1;labelBackgroundColor=none;strokeColor=#0f100e;strokeWidth=2;align=center;verticalAlign=middle;fontFamily=Helvetica;fontSize=12;fontColor=default;fillColor=#d5e8d4;aspect=fixed;" parent="vWWat6QSBSI1lbSyYQIO-40" vertex="1">
          <mxGeometry x="20" y="247.72" width="130" height="52.28" as="geometry" />
        </mxCell>
        <mxCell id="vWWat6QSBSI1lbSyYQIO-29" value="" style="group;aspect=fixed;" parent="vWWat6QSBSI1lbSyYQIO-40" vertex="1" connectable="0">
          <mxGeometry x="159.99" y="97.72" width="150" height="150" as="geometry" />
        </mxCell>
        <mxCell id="zulou_sgvfWS-L52G-o0-22" value="" style="rhombus;whiteSpace=wrap;html=1;rounded=0;labelBackgroundColor=none;strokeColor=#0F140C;strokeWidth=2;align=center;verticalAlign=middle;fontFamily=Helvetica;fontSize=12;fontColor=default;fillColor=#d5e8d4;aspect=fixed;" parent="vWWat6QSBSI1lbSyYQIO-29" vertex="1">
          <mxGeometry width="150" height="150" as="geometry" />
        </mxCell>
        <mxCell id="vWWat6QSBSI1lbSyYQIO-28" value="n1 % 2&lt;br&gt;==&lt;br&gt;0" style="text;strokeColor=none;align=center;fillColor=none;html=1;verticalAlign=middle;whiteSpace=wrap;rounded=0;fontSize=20;fontFamily=Architects Daughter;fontStyle=1;fontColor=#000000;aspect=fixed;container=1;" parent="vWWat6QSBSI1lbSyYQIO-29" vertex="1">
          <mxGeometry y="30" width="140" height="90" as="geometry" />
        </mxCell>
        <mxCell id="vWWat6QSBSI1lbSyYQIO-31" value="" style="rounded=0;whiteSpace=wrap;html=1;labelBackgroundColor=none;strokeColor=#0f100e;strokeWidth=2;align=center;verticalAlign=middle;fontFamily=Helvetica;fontSize=12;fontColor=default;fillColor=#d5e8d4;aspect=fixed;" parent="vWWat6QSBSI1lbSyYQIO-40" vertex="1">
          <mxGeometry x="320" y="247.72" width="140" height="60" as="geometry" />
        </mxCell>
        <mxCell id="vWWat6QSBSI1lbSyYQIO-34" value="" style="shape=hexagon;perimeter=hexagonPerimeter2;whiteSpace=wrap;html=1;fixedSize=1;rounded=0;labelBackgroundColor=none;strokeColor=#0F140C;strokeWidth=3;align=center;verticalAlign=middle;fontFamily=Helvetica;fontSize=12;fontColor=default;fillColor=#d5e8d4;aspect=fixed;" parent="vWWat6QSBSI1lbSyYQIO-40" vertex="1">
          <mxGeometry y="347.72" width="180" height="60" as="geometry" />
        </mxCell>
        <mxCell id="vWWat6QSBSI1lbSyYQIO-35" value="" style="shape=hexagon;perimeter=hexagonPerimeter2;whiteSpace=wrap;html=1;fixedSize=1;rounded=0;labelBackgroundColor=none;strokeColor=#0F140C;strokeWidth=3;align=center;verticalAlign=middle;fontFamily=Helvetica;fontSize=12;fontColor=default;fillColor=#d5e8d4;aspect=fixed;" parent="vWWat6QSBSI1lbSyYQIO-40" vertex="1">
          <mxGeometry x="305" y="347.72" width="195" height="55" as="geometry" />
        </mxCell>
        <mxCell id="vWWat6QSBSI1lbSyYQIO-37" value="return b" style="text;strokeColor=none;align=center;fillColor=none;html=1;verticalAlign=middle;whiteSpace=wrap;rounded=0;fontSize=20;fontFamily=Architects Daughter;fontStyle=1;fontColor=#000000;aspect=fixed;" parent="vWWat6QSBSI1lbSyYQIO-40" vertex="1">
          <mxGeometry x="360" y="360.22" width="90" height="30" as="geometry" />
        </mxCell>
        <mxCell id="vWWat6QSBSI1lbSyYQIO-38" value="" style="strokeWidth=2;html=1;shape=mxgraph.flowchart.start_2;whiteSpace=wrap;rounded=0;labelBackgroundColor=none;strokeColor=#000000;align=center;verticalAlign=middle;fontFamily=Helvetica;fontSize=12;fontColor=default;fillColor=#d5e8d4;aspect=fixed;" parent="vWWat6QSBSI1lbSyYQIO-40" vertex="1">
          <mxGeometry x="210" y="477.72" width="70" height="80" as="geometry" />
        </mxCell>
        <mxCell id="vWWat6QSBSI1lbSyYQIO-39" value="Fin" style="text;strokeColor=none;align=center;fillColor=none;html=1;verticalAlign=middle;whiteSpace=wrap;rounded=0;fontSize=20;fontFamily=Architects Daughter;fontStyle=1;fontColor=#000000;aspect=fixed;" parent="vWWat6QSBSI1lbSyYQIO-40" vertex="1">
          <mxGeometry x="215" y="502.72" width="60" height="30" as="geometry" />
        </mxCell>
        <mxCell id="vWWat6QSBSI1lbSyYQIO-88" value="" style="verticalLabelPosition=bottom;shadow=0;dashed=0;align=center;html=1;verticalAlign=top;strokeWidth=3;shape=mxgraph.mockup.markup.line;strokeColor=#100f0f;hachureGap=4;fontFamily=Architects Daughter;fontSource=https://fonts.googleapis.com/css?family=Architects+Daughter;fontSize=20;aspect=fixed;" parent="vWWat6QSBSI1lbSyYQIO-40" vertex="1">
          <mxGeometry x="80" y="437.72" width="330" height="20" as="geometry" />
        </mxCell>
        <mxCell id="vWWat6QSBSI1lbSyYQIO-91" value="" style="verticalLabelPosition=bottom;shadow=0;dashed=0;align=center;html=1;verticalAlign=top;strokeWidth=3;shape=mxgraph.mockup.markup.line;strokeColor=#100f0f;hachureGap=4;fontFamily=Architects Daughter;fontSource=https://fonts.googleapis.com/css?family=Architects+Daughter;fontSize=20;aspect=fixed;" parent="vWWat6QSBSI1lbSyYQIO-40" vertex="1">
          <mxGeometry x="310" y="162.72" width="90" height="20" as="geometry" />
        </mxCell>
        <mxCell id="vWWat6QSBSI1lbSyYQIO-93" value="" style="verticalLabelPosition=bottom;shadow=0;align=center;html=1;verticalAlign=top;strokeWidth=3;shape=mxgraph.mockup.markup.line;strokeColor=#000000;direction=north;hachureGap=4;fontFamily=Architects Daughter;fontSource=https://fonts.googleapis.com/css?family=Architects+Daughter;fontSize=20;aspect=fixed;" parent="vWWat6QSBSI1lbSyYQIO-40" vertex="1">
          <mxGeometry x="390" y="170" width="20" height="77.72" as="geometry" />
        </mxCell>
        <mxCell id="vWWat6QSBSI1lbSyYQIO-94" value="" style="verticalLabelPosition=bottom;shadow=0;dashed=0;align=center;html=1;verticalAlign=top;strokeWidth=3;shape=mxgraph.mockup.markup.line;strokeColor=#100f0f;hachureGap=4;fontFamily=Architects Daughter;fontSource=https://fonts.googleapis.com/css?family=Architects+Daughter;fontSize=20;aspect=fixed;" parent="vWWat6QSBSI1lbSyYQIO-40" vertex="1">
          <mxGeometry x="80" y="162.72" width="80" height="20" as="geometry" />
        </mxCell>
        <mxCell id="vWWat6QSBSI1lbSyYQIO-95" value="" style="verticalLabelPosition=bottom;shadow=0;align=center;html=1;verticalAlign=top;strokeWidth=3;shape=mxgraph.mockup.markup.line;strokeColor=#000000;direction=north;hachureGap=4;fontFamily=Architects Daughter;fontSource=https://fonts.googleapis.com/css?family=Architects+Daughter;fontSize=20;aspect=fixed;" parent="vWWat6QSBSI1lbSyYQIO-40" vertex="1">
          <mxGeometry x="67" y="170" width="20" height="77.72" as="geometry" />
        </mxCell>
        <mxCell id="vWWat6QSBSI1lbSyYQIO-92" value="" style="verticalLabelPosition=bottom;shadow=0;align=center;html=1;verticalAlign=top;strokeWidth=3;shape=mxgraph.mockup.markup.line;strokeColor=#000000;direction=north;hachureGap=4;fontFamily=Architects Daughter;fontSource=https://fonts.googleapis.com/css?family=Architects+Daughter;fontSize=20;aspect=fixed;" parent="vWWat6QSBSI1lbSyYQIO-40" vertex="1">
          <mxGeometry x="395" y="400" width="20" height="47.72" as="geometry" />
        </mxCell>
        <mxCell id="vWWat6QSBSI1lbSyYQIO-96" value="" style="verticalLabelPosition=bottom;shadow=0;align=center;html=1;verticalAlign=top;strokeWidth=3;shape=mxgraph.mockup.markup.line;strokeColor=#000000;direction=north;hachureGap=4;fontFamily=Architects Daughter;fontSource=https://fonts.googleapis.com/css?family=Architects+Daughter;fontSize=20;aspect=fixed;" parent="vWWat6QSBSI1lbSyYQIO-40" vertex="1">
          <mxGeometry x="224.99" y="65.45" width="20" height="34.55" as="geometry" />
        </mxCell>
        <mxCell id="vWWat6QSBSI1lbSyYQIO-97" value="" style="verticalLabelPosition=bottom;shadow=0;align=center;html=1;verticalAlign=top;strokeWidth=3;shape=mxgraph.mockup.markup.line;strokeColor=#000000;direction=north;hachureGap=4;fontFamily=Architects Daughter;fontSource=https://fonts.googleapis.com/css?family=Architects+Daughter;fontSize=20;aspect=fixed;" parent="vWWat6QSBSI1lbSyYQIO-40" vertex="1">
          <mxGeometry x="67" y="300" width="20" height="50" as="geometry" />
        </mxCell>
        <mxCell id="vWWat6QSBSI1lbSyYQIO-98" value="" style="verticalLabelPosition=bottom;shadow=0;align=center;html=1;verticalAlign=top;strokeWidth=3;shape=mxgraph.mockup.markup.line;strokeColor=#000000;direction=north;hachureGap=4;fontFamily=Architects Daughter;fontSource=https://fonts.googleapis.com/css?family=Architects+Daughter;fontSize=20;aspect=fixed;" parent="vWWat6QSBSI1lbSyYQIO-40" vertex="1">
          <mxGeometry x="390" y="307.72" width="20" height="42.28" as="geometry" />
        </mxCell>
        <mxCell id="vWWat6QSBSI1lbSyYQIO-99" value="" style="verticalLabelPosition=bottom;shadow=0;align=center;html=1;verticalAlign=top;strokeWidth=3;shape=mxgraph.mockup.markup.line;strokeColor=#000000;direction=north;hachureGap=4;fontFamily=Architects Daughter;fontSource=https://fonts.googleapis.com/css?family=Architects+Daughter;fontSize=20;aspect=fixed;" parent="vWWat6QSBSI1lbSyYQIO-40" vertex="1">
          <mxGeometry x="67" y="410" width="20" height="40" as="geometry" />
        </mxCell>
        <mxCell id="vWWat6QSBSI1lbSyYQIO-100" value="" style="verticalLabelPosition=bottom;shadow=0;align=center;html=1;verticalAlign=top;strokeWidth=3;shape=mxgraph.mockup.markup.line;strokeColor=#000000;direction=north;hachureGap=4;fontFamily=Architects Daughter;fontSource=https://fonts.googleapis.com/css?family=Architects+Daughter;fontSize=20;aspect=fixed;" parent="vWWat6QSBSI1lbSyYQIO-40" vertex="1">
          <mxGeometry x="235" y="450" width="20" height="30" as="geometry" />
        </mxCell>
        <mxCell id="vWWat6QSBSI1lbSyYQIO-30" value="int a = 1" style="text;strokeColor=none;align=center;fillColor=none;html=1;verticalAlign=middle;whiteSpace=wrap;rounded=0;fontSize=20;fontFamily=Architects Daughter;fontStyle=1;fontColor=#1A1A1A;aspect=fixed;container=1;" parent="vWWat6QSBSI1lbSyYQIO-40" vertex="1">
          <mxGeometry x="10.5" y="257.72" width="133" height="30" as="geometry" />
        </mxCell>
        <mxCell id="vWWat6QSBSI1lbSyYQIO-32" value="int b = 0" style="text;strokeColor=none;align=center;fillColor=none;html=1;verticalAlign=middle;whiteSpace=wrap;rounded=0;fontSize=20;fontFamily=Architects Daughter;fontStyle=1;fontColor=#000000;aspect=fixed;container=1;" parent="vWWat6QSBSI1lbSyYQIO-40" vertex="1">
          <mxGeometry x="330" y="262.72" width="120" height="30" as="geometry" />
        </mxCell>
        <mxCell id="vWWat6QSBSI1lbSyYQIO-36" value="return a" style="text;strokeColor=none;align=center;fillColor=none;html=1;verticalAlign=middle;whiteSpace=wrap;rounded=0;fontSize=20;fontFamily=Architects Daughter;fontStyle=1;fontColor=#000000;aspect=fixed;container=1;" parent="vWWat6QSBSI1lbSyYQIO-40" vertex="1" collapsed="1">
          <mxGeometry x="23.5" y="357.72" width="120" height="40" as="geometry">
            <mxRectangle x="41.75" y="361.5" width="86.5" height="32.44" as="alternateBounds" />
          </mxGeometry>
        </mxCell>
        <mxCell id="vWWat6QSBSI1lbSyYQIO-101" value="" style="group;aspect=fixed;" parent="1" vertex="1" connectable="0">
          <mxGeometry x="-130" y="140" width="670" height="979" as="geometry" />
        </mxCell>
        <mxCell id="zulou_sgvfWS-L52G-o0-12" value="" style="whiteSpace=wrap;html=1;aspect=fixed;rounded=0;labelBackgroundColor=none;strokeColor=#000000;strokeWidth=2;align=center;verticalAlign=middle;fontFamily=Helvetica;fontSize=12;fontColor=default;fillColor=#d5e8d4;container=0;" parent="vWWat6QSBSI1lbSyYQIO-101" vertex="1">
          <mxGeometry x="100" y="235" width="570" height="570" as="geometry" />
        </mxCell>
        <mxCell id="zulou_sgvfWS-L52G-o0-13" value="" style="group;aspect=fixed;fontSize=15;" parent="vWWat6QSBSI1lbSyYQIO-101" vertex="1" connectable="0">
          <mxGeometry y="290" width="210" height="210" as="geometry" />
        </mxCell>
        <mxCell id="zulou_sgvfWS-L52G-o0-14" value="" style="ellipse;whiteSpace=wrap;html=1;aspect=fixed;rounded=0;labelBackgroundColor=none;strokeColor=#0F140C;strokeWidth=3;align=center;verticalAlign=middle;fontFamily=Helvetica;fontSize=12;fontColor=default;fillColor=#d5e8d4;" parent="zulou_sgvfWS-L52G-o0-13" vertex="1">
          <mxGeometry width="210" height="210" as="geometry" />
        </mxCell>
        <mxCell id="zulou_sgvfWS-L52G-o0-15" value="" style="endArrow=none;html=1;rounded=0;strokeColor=#0F140C;fontFamily=Helvetica;fontSize=12;fontColor=default;fillColor=#B2C9AB;strokeWidth=2;" parent="zulou_sgvfWS-L52G-o0-13" edge="1">
          <mxGeometry width="50" height="50" relative="1" as="geometry">
            <mxPoint x="201.60000000000008" y="58.79999999999999" as="sourcePoint" />
            <mxPoint x="8.4" y="58.79999999999999" as="targetPoint" />
          </mxGeometry>
        </mxCell>
        <mxCell id="zulou_sgvfWS-L52G-o0-16" value="" style="endArrow=none;html=1;rounded=0;strokeColor=#0F140C;fontFamily=Helvetica;fontSize=12;fontColor=default;fillColor=#B2C9AB;exitX=0.264;exitY=0.952;exitDx=0;exitDy=0;exitPerimeter=0;strokeWidth=2;" parent="zulou_sgvfWS-L52G-o0-13" source="zulou_sgvfWS-L52G-o0-14" edge="1">
          <mxGeometry width="50" height="50" relative="1" as="geometry">
            <mxPoint x="50.40000000000002" y="126" as="sourcePoint" />
            <mxPoint x="58.79999999999999" y="58.79999999999999" as="targetPoint" />
          </mxGeometry>
        </mxCell>
        <mxCell id="zulou_sgvfWS-L52G-o0-17" value="" style="endArrow=none;html=1;rounded=0;strokeColor=#0F140C;fontFamily=Helvetica;fontSize=12;fontColor=default;fillColor=#B2C9AB;exitX=0.728;exitY=0.948;exitDx=0;exitDy=0;exitPerimeter=0;strokeWidth=2;" parent="zulou_sgvfWS-L52G-o0-13" source="zulou_sgvfWS-L52G-o0-14" edge="1">
          <mxGeometry width="50" height="50" relative="1" as="geometry">
            <mxPoint x="126" y="142.80000000000004" as="sourcePoint" />
            <mxPoint x="152.87999999999997" y="58.79999999999999" as="targetPoint" />
          </mxGeometry>
        </mxCell>
        <mxCell id="vWWat6QSBSI1lbSyYQIO-7" value="x" style="text;strokeColor=none;align=center;fillColor=none;html=1;verticalAlign=middle;whiteSpace=wrap;rounded=0;fontSize=24;fontFamily=Architects Daughter;fontColor=#000000;container=0;" parent="zulou_sgvfWS-L52G-o0-13" vertex="1">
          <mxGeometry x="64.76597918396014" y="8.863418683353569" width="80.45463252665856" height="40.22731626332928" as="geometry" />
        </mxCell>
        <mxCell id="vWWat6QSBSI1lbSyYQIO-8" value="x = 0" style="text;strokeColor=none;align=center;fillColor=none;html=1;verticalAlign=middle;whiteSpace=wrap;rounded=0;fontSize=15;fontFamily=Architects Daughter;fontStyle=1;fontColor=#0d0d0d;" parent="zulou_sgvfWS-L52G-o0-13" vertex="1">
          <mxGeometry x="0.6835867961954993" y="88.97309394232236" width="64.08626214332942" height="32.04313107166471" as="geometry" />
        </mxCell>
        <mxCell id="vWWat6QSBSI1lbSyYQIO-9" value="x &amp;lt; 20" style="text;strokeColor=none;align=center;fillColor=none;html=1;verticalAlign=middle;whiteSpace=wrap;rounded=0;fontSize=20;fontFamily=Architects Daughter;fontStyle=1;fontColor=#000000;container=0;" parent="zulou_sgvfWS-L52G-o0-13" vertex="1">
          <mxGeometry x="56.9299628706576" y="88.98377498601292" width="96.12939321499414" height="32.04313107166471" as="geometry" />
        </mxCell>
        <mxCell id="vWWat6QSBSI1lbSyYQIO-10" value="x++" style="text;strokeColor=none;align=center;fillColor=none;html=1;verticalAlign=middle;whiteSpace=wrap;rounded=0;fontSize=20;fontFamily=Architects Daughter;fontStyle=1;fontColor=#000000;container=0;" parent="zulou_sgvfWS-L52G-o0-13" vertex="1">
          <mxGeometry x="145.21947001678444" y="88.98377498601292" width="64.08626214332942" height="32.04313107166471" as="geometry" />
        </mxCell>
        <mxCell id="vWWat6QSBSI1lbSyYQIO-62" value="" style="group;aspect=fixed;" parent="vWWat6QSBSI1lbSyYQIO-101" vertex="1" connectable="0">
          <mxGeometry x="210" y="309.9955362725367" width="410" height="410.0044637274633" as="geometry" />
        </mxCell>
        <mxCell id="vWWat6QSBSI1lbSyYQIO-18" value="" style="rounded=0;whiteSpace=wrap;html=1;labelBackgroundColor=none;strokeColor=#0f100e;strokeWidth=2;align=center;verticalAlign=middle;fontFamily=Helvetica;fontSize=12;fontColor=default;fillColor=#d5e8d4;container=0;" parent="vWWat6QSBSI1lbSyYQIO-62" vertex="1">
          <mxGeometry y="116.16446372746339" width="69" height="37.88" as="geometry" />
        </mxCell>
        <mxCell id="zulou_sgvfWS-L52G-o0-20" value="" style="shape=trapezoid;perimeter=trapezoidPerimeter;whiteSpace=wrap;html=1;fixedSize=1;rounded=0;labelBackgroundColor=none;strokeColor=#121211;strokeWidth=2;align=center;verticalAlign=middle;fontFamily=Helvetica;fontSize=12;fontColor=default;fillColor=#d5e8d4;direction=west;container=0;aspect=fixed;" parent="vWWat6QSBSI1lbSyYQIO-62" vertex="1">
          <mxGeometry x="157.99908716540844" y="7.61" width="165.58764584763213" height="49.676293754289645" as="geometry">
            <mxRectangle x="-1020" y="-650" width="50" height="40" as="alternateBounds" />
          </mxGeometry>
        </mxCell>
        <mxCell id="vWWat6QSBSI1lbSyYQIO-45" value="=" style="text;strokeColor=none;align=center;fillColor=none;html=1;verticalAlign=middle;whiteSpace=wrap;rounded=0;fontSize=30;fontFamily=Architects Daughter;fontColor=#000000;container=0;" parent="vWWat6QSBSI1lbSyYQIO-62" vertex="1">
          <mxGeometry x="40" y="105.10446372746333" width="110" height="60" as="geometry" />
        </mxCell>
        <mxCell id="vWWat6QSBSI1lbSyYQIO-46" value="los2" style="text;strokeColor=none;align=center;fillColor=none;html=1;verticalAlign=middle;whiteSpace=wrap;rounded=0;fontSize=20;fontFamily=Architects Daughter;fontStyle=1;fontColor=#000000;container=0;" parent="vWWat6QSBSI1lbSyYQIO-62" vertex="1">
          <mxGeometry y="120.11446372746332" width="60" height="30" as="geometry" />
        </mxCell>
        <mxCell id="vWWat6QSBSI1lbSyYQIO-13" value="" style="shape=hexagon;perimeter=hexagonPerimeter2;whiteSpace=wrap;html=1;fixedSize=1;rounded=0;labelBackgroundColor=none;strokeColor=#4f514d;strokeWidth=2;align=center;verticalAlign=middle;fontFamily=Helvetica;fontSize=12;fillColor=#d5e8d4;aspect=fixed;container=0;" parent="vWWat6QSBSI1lbSyYQIO-62" vertex="1">
          <mxGeometry x="110" y="100.0044637274633" width="289.61625" height="70.21" as="geometry" />
        </mxCell>
        <mxCell id="vWWat6QSBSI1lbSyYQIO-14" value="" style="line;strokeWidth=2;html=1;rounded=0;labelBackgroundColor=none;align=center;verticalAlign=middle;fontFamily=Helvetica;fontSize=12;strokeColor=#252323;aspect=fixed;container=0;" parent="vWWat6QSBSI1lbSyYQIO-62" vertex="1">
          <mxGeometry x="110" y="126.33321372746332" width="289.61625" height="17.5525" as="geometry" />
        </mxCell>
        <mxCell id="vWWat6QSBSI1lbSyYQIO-15" value="" style="line;strokeWidth=2;direction=south;html=1;rounded=0;labelBackgroundColor=none;strokeColor=#000000;align=center;verticalAlign=middle;fontFamily=Helvetica;fontSize=12;fontColor=default;fillColor=#d5e8d4;aspect=fixed;container=0;" parent="vWWat6QSBSI1lbSyYQIO-62" vertex="1">
          <mxGeometry x="294.30999999999995" y="135.10946372746332" width="8.77625" height="35.105" as="geometry" />
        </mxCell>
        <mxCell id="vWWat6QSBSI1lbSyYQIO-43" value="par" style="text;strokeColor=none;align=center;fillColor=none;html=1;verticalAlign=middle;whiteSpace=wrap;rounded=0;fontSize=23;fontFamily=Architects Daughter;fontStyle=1;fontColor=#000000;container=0;" parent="vWWat6QSBSI1lbSyYQIO-62" vertex="1">
          <mxGeometry x="190" y="83.8844637274633" width="90" height="60" as="geometry" />
        </mxCell>
        <mxCell id="vWWat6QSBSI1lbSyYQIO-44" value="num" style="text;strokeColor=none;align=center;fillColor=none;html=1;verticalAlign=middle;whiteSpace=wrap;rounded=0;fontSize=20;fontFamily=Architects Daughter;fontStyle=1;fontColor=#000000;container=0;" parent="vWWat6QSBSI1lbSyYQIO-62" vertex="1">
          <mxGeometry x="180" y="135.11446372746332" width="60" height="30" as="geometry" />
        </mxCell>
        <mxCell id="vWWat6QSBSI1lbSyYQIO-5" value="num" style="text;strokeColor=none;align=center;fillColor=none;html=1;verticalAlign=middle;whiteSpace=wrap;rounded=0;fontSize=20;fontFamily=Architects Daughter;fontStyle=1;fontColor=#000000;container=0;" parent="vWWat6QSBSI1lbSyYQIO-62" vertex="1">
          <mxGeometry x="206.32638297872347" y="7.605953089165439" width="68.93617021276596" height="34.46808510638298" as="geometry" />
        </mxCell>
        <mxCell id="vWWat6QSBSI1lbSyYQIO-58" value="" style="rhombus;whiteSpace=wrap;html=1;rounded=0;labelBackgroundColor=none;strokeColor=#0F140C;strokeWidth=2;align=center;verticalAlign=middle;fontFamily=Helvetica;fontSize=12;fontColor=default;fillColor=#d5e8d4;aspect=fixed;container=0;" parent="vWWat6QSBSI1lbSyYQIO-62" vertex="1">
          <mxGeometry x="190" y="210.0044637274633" width="120" height="140" as="geometry" />
        </mxCell>
        <mxCell id="vWWat6QSBSI1lbSyYQIO-59" value="los2&lt;br&gt;==&lt;br&gt;1" style="text;strokeColor=none;align=center;fillColor=none;html=1;verticalAlign=middle;whiteSpace=wrap;rounded=0;fontSize=20;fontFamily=Architects Daughter;fontStyle=1;fontColor=#000000;aspect=fixed;container=0;" parent="vWWat6QSBSI1lbSyYQIO-62" vertex="1">
          <mxGeometry x="220" y="265.0044637274633" width="60" height="30" as="geometry" />
        </mxCell>
        <mxCell id="vWWat6QSBSI1lbSyYQIO-80" value="" style="verticalLabelPosition=bottom;shadow=0;align=center;html=1;verticalAlign=top;strokeWidth=3;shape=mxgraph.mockup.markup.line;strokeColor=#000000;direction=north;hachureGap=4;fontFamily=Architects Daughter;fontSource=https://fonts.googleapis.com/css?family=Architects+Daughter;fontSize=20;" parent="vWWat6QSBSI1lbSyYQIO-62" vertex="1">
          <mxGeometry x="230.79" y="60" width="20" height="40" as="geometry" />
        </mxCell>
        <mxCell id="vWWat6QSBSI1lbSyYQIO-81" value="" style="verticalLabelPosition=bottom;shadow=0;align=center;html=1;verticalAlign=top;strokeWidth=3;shape=mxgraph.mockup.markup.line;strokeColor=#000000;direction=north;hachureGap=4;fontFamily=Architects Daughter;fontSource=https://fonts.googleapis.com/css?family=Architects+Daughter;fontSize=20;" parent="vWWat6QSBSI1lbSyYQIO-62" vertex="1">
          <mxGeometry x="240" y="170.21" width="20" height="39.79" as="geometry" />
        </mxCell>
        <mxCell id="vWWat6QSBSI1lbSyYQIO-82" value="" style="verticalLabelPosition=bottom;shadow=0;dashed=0;align=center;html=1;verticalAlign=top;strokeWidth=3;shape=mxgraph.mockup.markup.line;strokeColor=#100f0f;hachureGap=4;fontFamily=Architects Daughter;fontSource=https%3A%2F%2Ffonts.googleapis.com%2Fcss%3Ffamily%3DArchitects%2BDaughter;fontSize=20;" parent="vWWat6QSBSI1lbSyYQIO-62" vertex="1">
          <mxGeometry x="310" y="270" width="89.62" height="20" as="geometry" />
        </mxCell>
        <mxCell id="vWWat6QSBSI1lbSyYQIO-83" value="" style="verticalLabelPosition=bottom;shadow=0;align=center;html=1;verticalAlign=top;strokeWidth=3;shape=mxgraph.mockup.markup.line;strokeColor=#000000;direction=north;hachureGap=4;fontFamily=Architects Daughter;fontSource=https://fonts.googleapis.com/css?family=Architects+Daughter;fontSize=20;" parent="vWWat6QSBSI1lbSyYQIO-62" vertex="1">
          <mxGeometry x="390" y="280" width="20" height="120" as="geometry" />
        </mxCell>
        <mxCell id="vWWat6QSBSI1lbSyYQIO-85" value="" style="verticalLabelPosition=bottom;shadow=0;align=center;html=1;verticalAlign=top;strokeWidth=3;shape=mxgraph.mockup.markup.line;strokeColor=#000000;direction=north;hachureGap=4;fontFamily=Architects Daughter;fontSource=https://fonts.googleapis.com/css?family=Architects+Daughter;fontSize=20;" parent="vWWat6QSBSI1lbSyYQIO-62" vertex="1">
          <mxGeometry x="100" y="370" width="20" height="30" as="geometry" />
        </mxCell>
        <mxCell id="vWWat6QSBSI1lbSyYQIO-86" value="" style="verticalLabelPosition=bottom;shadow=0;align=center;html=1;verticalAlign=top;strokeWidth=3;shape=mxgraph.mockup.markup.line;strokeColor=#000000;direction=north;hachureGap=4;fontFamily=Architects Daughter;fontSource=https://fonts.googleapis.com/css?family=Architects+Daughter;fontSize=20;" parent="vWWat6QSBSI1lbSyYQIO-62" vertex="1">
          <mxGeometry x="100" y="280" width="20" height="50" as="geometry" />
        </mxCell>
        <mxCell id="vWWat6QSBSI1lbSyYQIO-87" value="" style="verticalLabelPosition=bottom;shadow=0;dashed=0;align=center;html=1;verticalAlign=top;strokeWidth=3;shape=mxgraph.mockup.markup.line;strokeColor=#100f0f;hachureGap=4;fontFamily=Architects Daughter;fontSource=https://fonts.googleapis.com/css?family=Architects+Daughter;fontSize=20;" parent="vWWat6QSBSI1lbSyYQIO-62" vertex="1">
          <mxGeometry x="110" y="270" width="79.62" height="20" as="geometry" />
        </mxCell>
        <mxCell id="vWWat6QSBSI1lbSyYQIO-72" value="" style="group;aspect=fixed;" parent="vWWat6QSBSI1lbSyYQIO-101" vertex="1" connectable="0">
          <mxGeometry x="300" y="840" width="150" height="139" as="geometry" />
        </mxCell>
        <mxCell id="vWWat6QSBSI1lbSyYQIO-19" value="" style="strokeWidth=2;html=1;shape=mxgraph.flowchart.start_2;whiteSpace=wrap;rounded=0;labelBackgroundColor=none;strokeColor=#000000;align=center;verticalAlign=middle;fontFamily=Helvetica;fontSize=12;fontColor=default;fillColor=#d5e8d4;" parent="vWWat6QSBSI1lbSyYQIO-72" vertex="1">
          <mxGeometry x="35" y="59" width="70" height="80" as="geometry" />
        </mxCell>
        <mxCell id="vWWat6QSBSI1lbSyYQIO-16" value="" style="shape=trapezoid;perimeter=trapezoidPerimeter;whiteSpace=wrap;html=1;fixedSize=1;rounded=0;labelBackgroundColor=none;strokeColor=#0F140C;strokeWidth=2;align=center;verticalAlign=middle;fontFamily=Helvetica;fontSize=12;fontColor=default;fillColor=#d5e8d4;" parent="vWWat6QSBSI1lbSyYQIO-72" vertex="1">
          <mxGeometry width="150" height="40" as="geometry" />
        </mxCell>
        <mxCell id="vWWat6QSBSI1lbSyYQIO-70" value="&quot; con &quot;" style="text;strokeColor=none;align=center;fillColor=none;html=1;verticalAlign=middle;whiteSpace=wrap;rounded=0;fontSize=20;fontFamily=Architects Daughter;fontStyle=1;fontColor=#000000;" parent="vWWat6QSBSI1lbSyYQIO-72" vertex="1">
          <mxGeometry x="15" y="5" width="110" height="30" as="geometry" />
        </mxCell>
        <mxCell id="vWWat6QSBSI1lbSyYQIO-71" value="Fin" style="text;strokeColor=none;align=center;fillColor=none;html=1;verticalAlign=middle;whiteSpace=wrap;rounded=0;fontSize=20;fontFamily=Architects Daughter;fontStyle=1;fontColor=#000000;" parent="vWWat6QSBSI1lbSyYQIO-72" vertex="1">
          <mxGeometry x="35" y="84" width="60" height="30" as="geometry" />
        </mxCell>
        <mxCell id="vWWat6QSBSI1lbSyYQIO-90" value="" style="verticalLabelPosition=bottom;shadow=0;dashed=0;align=center;html=1;verticalAlign=top;strokeWidth=3;shape=mxgraph.mockup.markup.line;strokeColor=#000000;direction=north;hachureGap=4;fontFamily=Architects Daughter;fontSource=https://fonts.googleapis.com/css?family=Architects+Daughter;fontSize=20;gradientColor=none;fillColor=default;" parent="vWWat6QSBSI1lbSyYQIO-72" vertex="1">
          <mxGeometry x="60" y="39" width="20" height="20" as="geometry" />
        </mxCell>
        <mxCell id="vWWat6QSBSI1lbSyYQIO-74" value="" style="group;aspect=fixed;" parent="vWWat6QSBSI1lbSyYQIO-101" vertex="1" connectable="0">
          <mxGeometry x="284.37" width="181.26" height="190" as="geometry" />
        </mxCell>
        <mxCell id="zulou_sgvfWS-L52G-o0-5" value="" style="group;aspect=fixed;" parent="vWWat6QSBSI1lbSyYQIO-74" vertex="1" connectable="0">
          <mxGeometry y="69.99999999999999" width="181.26" height="50" as="geometry" />
        </mxCell>
        <mxCell id="zulou_sgvfWS-L52G-o0-6" value="" style="shape=hexagon;perimeter=hexagonPerimeter2;whiteSpace=wrap;html=1;fixedSize=1;rounded=0;labelBackgroundColor=none;strokeColor=#0F140C;strokeWidth=3;align=center;verticalAlign=middle;fontFamily=Helvetica;fontSize=12;fontColor=default;fillColor=#d5e8d4;" parent="zulou_sgvfWS-L52G-o0-5" vertex="1">
          <mxGeometry width="181.26000000000002" height="50.00000000000001" as="geometry" />
        </mxCell>
        <mxCell id="zulou_sgvfWS-L52G-o0-7" value="" style="endArrow=none;html=1;rounded=0;exitX=-0.01;exitY=0.5;exitDx=0;exitDy=0;exitPerimeter=0;strokeWidth=2;strokeColor=#000000;" parent="zulou_sgvfWS-L52G-o0-5" source="zulou_sgvfWS-L52G-o0-6" edge="1">
          <mxGeometry width="50" height="50" relative="1" as="geometry">
            <mxPoint x="81.25448275862068" y="31.250000000000004" as="sourcePoint" />
            <mxPoint x="181.26000000000002" y="25.000000000000004" as="targetPoint" />
            <Array as="points" />
          </mxGeometry>
        </mxCell>
        <mxCell id="zulou_sgvfWS-L52G-o0-9" value="void main" style="text;strokeColor=none;align=center;fillColor=none;html=1;verticalAlign=middle;whiteSpace=wrap;rounded=0;fontSize=16;fontFamily=Architects Daughter;fontStyle=1;fontColor=#000000;" parent="zulou_sgvfWS-L52G-o0-5" vertex="1">
          <mxGeometry x="30.629999999999995" width="120" height="30" as="geometry" />
        </mxCell>
        <mxCell id="vWWat6QSBSI1lbSyYQIO-41" value="" style="group;aspect=fixed;" parent="vWWat6QSBSI1lbSyYQIO-74" vertex="1" connectable="0">
          <mxGeometry x="49.05000000000001" width="81.58" height="54.39" as="geometry" />
        </mxCell>
        <mxCell id="zulou_sgvfWS-L52G-o0-4" value="" style="strokeWidth=2;html=1;shape=mxgraph.flowchart.start_2;whiteSpace=wrap;rounded=0;labelBackgroundColor=none;strokeColor=#000000;align=center;verticalAlign=middle;fontFamily=Helvetica;fontSize=12;fontColor=default;fillColor=#d5e8d4;" parent="vWWat6QSBSI1lbSyYQIO-41" vertex="1">
          <mxGeometry x="13.596666666666668" width="54.38666666666667" height="54.39" as="geometry" />
        </mxCell>
        <mxCell id="zulou_sgvfWS-L52G-o0-11" value="I" style="text;strokeColor=none;align=center;fillColor=none;html=1;verticalAlign=middle;whiteSpace=wrap;rounded=0;fontSize=22;fontFamily=Architects Daughter;fontStyle=1;fontColor=#000000;" parent="vWWat6QSBSI1lbSyYQIO-41" vertex="1">
          <mxGeometry y="10.497269999999999" width="81.58" height="33.993750000000006" as="geometry" />
        </mxCell>
        <mxCell id="vWWat6QSBSI1lbSyYQIO-49" value="" style="group;aspect=fixed;" parent="vWWat6QSBSI1lbSyYQIO-74" vertex="1" connectable="0">
          <mxGeometry x="50.629999999999995" y="150" width="80" height="40" as="geometry" />
        </mxCell>
        <mxCell id="vWWat6QSBSI1lbSyYQIO-47" value="" style="rounded=0;whiteSpace=wrap;html=1;labelBackgroundColor=none;strokeColor=#0f100e;strokeWidth=2;align=center;verticalAlign=middle;fontFamily=Helvetica;fontSize=12;fontColor=default;fillColor=#d5e8d4;aspect=fixed;" parent="vWWat6QSBSI1lbSyYQIO-49" vertex="1">
          <mxGeometry width="80" height="40" as="geometry" />
        </mxCell>
        <mxCell id="vWWat6QSBSI1lbSyYQIO-48" value="con" style="text;strokeColor=none;align=center;fillColor=none;html=1;verticalAlign=middle;whiteSpace=wrap;rounded=0;fontSize=20;fontFamily=Architects Daughter;fontStyle=1;fontColor=#000000;aspect=fixed;" parent="vWWat6QSBSI1lbSyYQIO-49" vertex="1">
          <mxGeometry x="10" y="5" width="60" height="25" as="geometry" />
        </mxCell>
        <mxCell id="vWWat6QSBSI1lbSyYQIO-78" value="" style="verticalLabelPosition=bottom;shadow=0;dashed=0;align=center;html=1;verticalAlign=top;strokeWidth=3;shape=mxgraph.mockup.markup.line;strokeColor=#000000;direction=north;hachureGap=4;fontFamily=Architects Daughter;fontSource=https%3A%2F%2Ffonts.googleapis.com%2Fcss%3Ffamily%3DArchitects%2BDaughter;fontSize=20;gradientColor=none;fillColor=default;" parent="vWWat6QSBSI1lbSyYQIO-74" vertex="1">
          <mxGeometry x="79.84" y="54.389999999999986" width="20" height="20" as="geometry" />
        </mxCell>
        <mxCell id="vWWat6QSBSI1lbSyYQIO-79" value="" style="verticalLabelPosition=bottom;shadow=0;align=center;html=1;verticalAlign=top;strokeWidth=3;shape=mxgraph.mockup.markup.line;strokeColor=#000000;direction=north;hachureGap=4;fontFamily=Architects Daughter;fontSource=https://fonts.googleapis.com/css?family=Architects+Daughter;fontSize=20;" parent="vWWat6QSBSI1lbSyYQIO-74" vertex="1">
          <mxGeometry x="75.63" y="120" width="20" height="30" as="geometry" />
        </mxCell>
        <mxCell id="vWWat6QSBSI1lbSyYQIO-66" value="" style="group;aspect=fixed;" parent="vWWat6QSBSI1lbSyYQIO-101" vertex="1" connectable="0">
          <mxGeometry x="260" y="640" width="130" height="40" as="geometry" />
        </mxCell>
        <mxCell id="vWWat6QSBSI1lbSyYQIO-63" value="" style="rounded=0;whiteSpace=wrap;html=1;labelBackgroundColor=none;strokeColor=#0f100e;strokeWidth=2;align=center;verticalAlign=middle;fontFamily=Helvetica;fontSize=12;fontColor=default;fillColor=#d5e8d4;" parent="vWWat6QSBSI1lbSyYQIO-66" vertex="1">
          <mxGeometry width="130" height="40" as="geometry" />
        </mxCell>
        <mxCell id="vWWat6QSBSI1lbSyYQIO-65" value="con++" style="text;strokeColor=none;align=center;fillColor=none;html=1;verticalAlign=middle;whiteSpace=wrap;rounded=0;fontSize=20;fontFamily=Architects Daughter;fontStyle=1;fontColor=#000000;" parent="vWWat6QSBSI1lbSyYQIO-66" vertex="1">
          <mxGeometry x="35" width="60" height="30" as="geometry" />
        </mxCell>
        <mxCell id="vWWat6QSBSI1lbSyYQIO-77" value="" style="verticalLabelPosition=bottom;shadow=0;align=center;html=1;verticalAlign=top;strokeWidth=3;shape=mxgraph.mockup.markup.line;strokeColor=#000000;direction=north;hachureGap=4;fontFamily=Architects Daughter;fontSource=https%3A%2F%2Ffonts.googleapis.com%2Fcss%3Ffamily%3DArchitects%2BDaughter;fontSize=20;" parent="vWWat6QSBSI1lbSyYQIO-101" vertex="1">
          <mxGeometry x="360" y="190" width="20" height="50" as="geometry" />
        </mxCell>
        <mxCell id="vWWat6QSBSI1lbSyYQIO-84" value="" style="verticalLabelPosition=bottom;shadow=0;dashed=0;align=center;html=1;verticalAlign=top;strokeWidth=3;shape=mxgraph.mockup.markup.line;strokeColor=#100f0f;hachureGap=4;fontFamily=Architects Daughter;fontSource=https://fonts.googleapis.com/css?family=Architects+Daughter;fontSize=20;" parent="vWWat6QSBSI1lbSyYQIO-101" vertex="1">
          <mxGeometry x="320" y="700" width="290" height="20" as="geometry" />
        </mxCell>
        <mxCell id="vWWat6QSBSI1lbSyYQIO-89" value="" style="verticalLabelPosition=bottom;shadow=0;align=center;html=1;verticalAlign=top;strokeWidth=3;shape=mxgraph.mockup.markup.line;strokeColor=#000000;direction=north;hachureGap=4;fontFamily=Architects Daughter;fontSource=https://fonts.googleapis.com/css?family=Architects+Daughter;fontSize=20;" parent="vWWat6QSBSI1lbSyYQIO-101" vertex="1">
          <mxGeometry x="360" y="800" width="20" height="40" as="geometry" />
        </mxCell>
      </root>
    </mxGraphModel>
  </diagram>
</mxfile>
